<svg width="64" height="64" viewBox="0 0 64 64" fill="none" xmlns="http://www.w3.org/2000/svg">
<path d="M8 15.5H50C51.1935 15.5 52.3377 15.9744 53.1816 16.8184C54.0256 17.6623 54.5 18.8065 54.5 20V44C54.5 45.1935 54.0256 46.3377 53.1816 47.1816C52.3377 48.0256 51.1935 48.5 50 48.5H8C6.80653 48.5 5.66227 48.0256 4.81836 47.1816C3.97445 46.3377 3.5 45.1935 3.5 44V20C3.5 18.8065 3.97445 17.6623 4.81836 16.8184C5.66227 15.9744 6.80653 15.5 8 15.5ZM7.82617 16.5039C6.9612 16.5469 6.14068 16.9101 5.52539 17.5254C4.86901 18.1818 4.5 19.0717 4.5 20V44C4.5 44.9283 4.86901 45.8182 5.52539 46.4746C6.18177 47.131 7.07174 47.5 8 47.5H50C50.9283 47.5 51.8182 47.131 52.4746 46.4746C53.131 45.8182 53.5 44.9283 53.5 44V20C53.5 19.0717 53.131 18.1818 52.4746 17.5254C51.8182 16.869 50.9283 16.5 50 16.5H8L7.82617 16.5039ZM62 23.5C62.1326 23.5 62.2597 23.5527 62.3535 23.6465C62.4473 23.7403 62.5 23.8674 62.5 24V40C62.5 40.1326 62.4473 40.2597 62.3535 40.3535C62.2597 40.4473 62.1326 40.5 62 40.5C61.8674 40.5 61.7403 40.4473 61.6465 40.3535C61.5527 40.2597 61.5 40.1326 61.5 40V24C61.5 23.8674 61.5527 23.7403 61.6465 23.6465C61.7403 23.5527 61.8674 23.5 62 23.5ZM28.8418 23.5254C28.9676 23.4834 29.105 23.4926 29.2236 23.5518C29.3424 23.6111 29.4326 23.7158 29.4746 23.8418C29.5166 23.9676 29.5074 24.105 29.4482 24.2236L26.1699 30.7764L25.8086 31.5H32.999L33.0625 31.5039C33.1257 31.512 33.1872 31.5322 33.2432 31.5635C33.3174 31.605 33.3801 31.6649 33.4248 31.7373V31.7383C33.4697 31.8107 33.4951 31.8934 33.499 31.9785C33.502 32.0424 33.4926 32.106 33.4717 32.166L33.4473 32.2246L29.4482 40.2236C29.4067 40.3067 29.3427 40.377 29.2637 40.4258C29.1848 40.4745 29.0936 40.499 29.001 40.499C28.9228 40.4983 28.8458 40.4812 28.7754 40.4473C28.7168 40.4179 28.664 40.3776 28.6211 40.3281C28.5781 40.2785 28.5452 40.2205 28.5244 40.1582C28.5037 40.096 28.4954 40.0302 28.5 39.9648C28.5023 39.9322 28.508 39.8996 28.5166 39.8682L28.5518 39.7764L31.8301 33.2236L32.1914 32.5H25L24.9365 32.4961C24.8733 32.4881 24.8119 32.4677 24.7559 32.4365C24.6815 32.395 24.619 32.3352 24.5742 32.2627C24.5294 32.1902 24.5038 32.1076 24.5 32.0225C24.4962 31.9374 24.5137 31.8526 24.5518 31.7764L28.5518 23.7764C28.6111 23.6576 28.7158 23.5674 28.8418 23.5254Z" stroke="#212121"/>
</svg>
