<svg width="64" height="64" viewBox="0 0 64 64" fill="none" xmlns="http://www.w3.org/2000/svg">
<path d="M52 11H12C11.2044 11 10.4413 11.3161 9.87868 11.8787C9.31607 12.4413 9 13.2044 9 14V28C9 40.79 15.1825 48.53 20.3675 52.775C25.9675 57.355 31.505 58.9 31.7375 58.965C31.9094 59.0118 32.0906 59.0118 32.2625 58.965C32.495 58.9 38.0325 57.355 43.6325 52.775C48.8175 48.525 55 40.79 55 28V14C55 13.2044 54.6839 12.4413 54.1213 11.8787C53.5587 11.3161 52.7957 11 52 11ZM53 28C53 37.61 49.4425 45.4075 42.4275 51.1775C39.3298 53.7183 35.7967 55.6759 32 56.955C28.2028 55.677 24.6695 53.7193 21.5725 51.1775C14.5575 45.4075 11 37.61 11 28V14C11 13.7348 11.1054 13.4804 11.2929 13.2929C11.4804 13.1054 11.7348 13 12 13H52C52.2652 13 52.5196 13.1054 52.7071 13.2929C52.8946 13.4804 53 13.7348 53 14V28ZM42.7075 25.2925C42.8005 25.3854 42.8742 25.4957 42.9246 25.6171C42.9749 25.7385 43.0008 25.8686 43.0008 26C43.0008 26.1314 42.9749 26.2615 42.9246 26.3829C42.8742 26.5043 42.8005 26.6146 42.7075 26.7075L28.7075 40.7075C28.6146 40.8005 28.5043 40.8742 28.3829 40.9246C28.2615 40.9749 28.1314 41.0008 28 41.0008C27.8686 41.0008 27.7385 40.9749 27.6171 40.9246C27.4957 40.8742 27.3854 40.8005 27.2925 40.7075L21.2925 34.7075C21.1049 34.5199 20.9994 34.2654 20.9994 34C20.9994 33.7346 21.1049 33.4801 21.2925 33.2925C21.4801 33.1049 21.7346 32.9994 22 32.9994C22.2654 32.9994 22.5199 33.1049 22.7075 33.2925L28 38.585L41.2925 25.2925C41.3854 25.1995 41.4957 25.1258 41.6171 25.0754C41.7385 25.0251 41.8686 24.9992 42 24.9992C42.1314 24.9992 42.2615 25.0251 42.3829 25.0754C42.5043 25.1258 42.6146 25.1995 42.7075 25.2925Z" fill="#343330"/>
</svg>
