<svg width="64" height="64" viewBox="0 0 64 64" fill="none" xmlns="http://www.w3.org/2000/svg">
<path d="M59.0006 14V30C59.0006 30.2652 58.8952 30.5196 58.7077 30.7071C58.5201 30.8946 58.2658 31 58.0006 31C57.7353 31 57.481 30.8946 57.2934 30.7071C57.1059 30.5196 57.0006 30.2652 57.0006 30V16.415L34.7081 38.7075C34.6152 38.8005 34.5049 38.8742 34.3835 38.9246C34.2621 38.9749 34.132 39.0008 34.0006 39.0008C33.8691 39.0008 33.739 38.9749 33.6176 38.9246C33.4962 38.8742 33.3859 38.8005 33.2931 38.7075L24.0006 29.415L6.70806 46.7075C6.52042 46.8951 6.26592 47.0006 6.00056 47.0006C5.73519 47.0006 5.4807 46.8951 5.29306 46.7075C5.10542 46.5199 5 46.2654 5 46C5 45.7346 5.10542 45.4801 5.29306 45.2925L23.2931 27.2925C23.3859 27.1995 23.4962 27.1258 23.6176 27.0754C23.739 27.0251 23.8691 26.9992 24.0006 26.9992C24.132 26.9992 24.2621 27.0251 24.3835 27.0754C24.5049 27.1258 24.6152 27.1995 24.7081 27.2925L34.0006 36.585L55.5856 15H42.0006C41.7353 15 41.481 14.8946 41.2934 14.7071C41.1059 14.5196 41.0006 14.2652 41.0006 14C41.0006 13.7348 41.1059 13.4804 41.2934 13.2929C41.481 13.1054 41.7353 13 42.0006 13H58.0006C58.2658 13 58.5201 13.1054 58.7077 13.2929C58.8952 13.4804 59.0006 13.7348 59.0006 14Z" fill="#343330"/>
</svg>
