<svg width="64" height="64" viewBox="0 0 64 64" fill="none" xmlns="http://www.w3.org/2000/svg">
<path d="M42.75 12.595C39.7156 9.08862 36.3004 5.93086 32.5675 3.17997C32.3996 3.06274 32.1998 2.99988 31.995 2.99988C31.7902 2.99988 31.5904 3.06274 31.4225 3.17997C27.6931 5.93144 24.2813 9.08919 21.25 12.595C14.5425 20.3025 11 28.395 11 36C11 41.5695 13.2125 46.911 17.1508 50.8492C21.089 54.7875 26.4305 57 32 57C37.5695 57 42.911 54.7875 46.8492 50.8492C50.7875 46.911 53 41.5695 53 36C53 28.395 49.4575 20.3025 42.75 12.595ZM32 55C26.9625 54.9947 22.1329 52.9912 18.5708 49.4292C15.0088 45.8671 13.0053 41.0375 13 36C13 27.025 18.2875 19.05 22.725 13.94C25.5195 10.7416 28.6266 7.83044 32 5.24997C35.3739 7.83359 38.481 10.7481 41.275 13.95C45.7125 19.05 51 27.025 51 36C50.9947 41.0375 48.9912 45.8671 45.4292 49.4292C41.8671 52.9912 37.0375 54.9947 32 55ZM44.985 38.1675C44.504 40.8606 43.2088 43.3415 41.2741 45.2758C39.3394 47.21 36.8582 48.5046 34.165 48.985C34.1106 48.9949 34.0553 48.9999 34 49C33.7504 48.9981 33.5105 48.903 33.3275 48.7333C33.1445 48.5636 33.0315 48.3316 33.0108 48.0828C32.9902 47.8341 33.0633 47.5866 33.2158 47.389C33.3683 47.1914 33.5891 47.058 33.835 47.015C38.38 46.25 42.2425 42.3875 43.015 37.8325C43.0688 37.5801 43.218 37.3583 43.4315 37.2134C43.645 37.0685 43.9063 37.0117 44.1607 37.055C44.4151 37.0983 44.6429 37.2382 44.7965 37.4455C44.9501 37.6528 45.0177 37.9115 44.985 38.1675Z" fill="#343330"/>
</svg>
